<svg fill="none" height="24" viewBox="0 0 24 24" width="24" xmlns="http://www.w3.org/2000/svg"><g clip-rule="evenodd" fill-rule="evenodd"><path d="m15 7.75c.4142 0 .75.33579.75.75v6c0 .4142-.3358.75-.75.75s-.75-.3358-.75-.75v-6c0-.41421.3358-.75.75-.75z" fill="#ee4d4d"/><path d="m12 8.25c.4142 0 .75.33579.75.75v5.5c0 .4142-.3358.75-.75.75s-.75-.3358-.75-.75v-5.5c0-.41421.3358-.75.75-.75z" fill="#ee4d4d"/><path d="m9 7.75c.41421 0 .75.33579.75.75v6c0 .4142-.33579.75-.75.75s-.75-.3358-.75-.75v-6c0-.41421.33579-.75.75-.75z" fill="#d64545"/><path d="m6 3.25c.41421 0 .75.33579.75.75 0 2.22498 2.21666 4.25 5.25 4.25 3.0333 0 5.25-2.02502 5.25-4.25 0-.41421.3358-.75.75-.75s.75.33579.75.75c0 1.52944.4146 2.88016 1.0456 3.82662.6345.95169 1.4286 1.42338 2.2044 1.42338.4142 0 .75.33579.75.75 0 .4142-.3358.75-.75.75-1.4334 0-2.6392-.87146-3.4525-2.09133-.3221-.48321-.592-1.03241-.8007-1.62985-1.2121 1.66214-3.3848 2.72118-5.7468 2.72118-2.36195 0-4.53467-1.05904-5.74679-2.72118-.20873.59744-.4786 1.14664-.80074 1.62985-.81325 1.21987-2.01911 2.09133-3.45247 2.09133-.41421 0-.75-.3358-.75-.75 0-.41421.33579-.75.75-.75.77578 0 1.56992-.47169 2.20439-1.42338.63097-.94646 1.04561-2.29718 1.04561-3.82662 0-.41421.33579-.75.75-.75z" fill="#cfd8dc"/><path d="m1.25 14.5c0-.4142.33579-.75.75-.75h20c.4142 0 .75.3358.75.75s-.3358.75-.75.75h-20c-.41421 0-.75-.3358-.75-.75z" fill="#ee4d4d"/><path d="m18 3.25c.4142 0 .75.33579.75.75v16c0 .4142-.3358.75-.75.75s-.75-.3358-.75-.75v-16c0-.41421.3358-.75.75-.75z" fill="#ee4d4d"/><path d="m1.25 20c0-.4142.33579-.75.75-.75h20c.4142 0 .75.3358.75.75s-.3358.75-.75.75h-20c-.41421 0-.75-.3358-.75-.75z" fill="#cfd8dc"/><path d="m12 8.25c-.4142 0-.75.33579-.75.75v5.5c0 .4142.3358.75.75.75z" fill="#d64545"/><path d="m12 8.25v1.5c-2.36195 0-4.53467-1.05904-5.74679-2.72118-.20873.59744-.4786 1.14664-.80074 1.62985-.81325 1.21987-2.01911 2.09133-3.45247 2.09133-.41421 0-.75-.3358-.75-.75 0-.41421.33579-.75.75-.75.77578 0 1.56992-.47169 2.20439-1.42338.63097-.94646 1.04561-2.29718 1.04561-3.82662 0-.41421.33579-.75.75-.75s.75.33579.75.75c0 2.22498 2.21666 4.25 5.25 4.25z" fill="#b9c5cb"/><path d="m12 13.75v1.5h-10c-.41421 0-.75-.3358-.75-.75s.33579-.75.75-.75z" fill="#d64545"/><path d="m6 3.25c.41421 0 .75.33579.75.75v16c0 .4142-.33579.75-.75.75s-.75-.3358-.75-.75v-16c0-.41421.33579-.75.75-.75z" fill="#d64545"/><path d="m12 19.25v1.5h-10c-.41421 0-.75-.3358-.75-.75s.33579-.75.75-.75z" fill="#b9c5cb"/></g></svg>