<?xml version="1.0" encoding="iso-8859-1"?>
<!-- Generator: Adobe Illustrator 19.0.0, SVG Export Plug-In . SVG Version: 6.00 Build 0)  -->
<svg version="1.1" id="Capa_1" xmlns="http://www.w3.org/2000/svg" xmlns:xlink="http://www.w3.org/1999/xlink" x="0px" y="0px"
	 viewBox="0 0 512.002 512.002" style="enable-background:new 0 0 512.002 512.002;" xml:space="preserve">
<g>
	<path style="fill:#939393;" d="M181.672,275.098c-3.079,0-5.576-2.496-5.576-5.576v-70.787c0-3.08,2.497-5.576,5.576-5.576
		s5.576,2.496,5.576,5.576v70.787C187.248,272.602,184.752,275.098,181.672,275.098z"/>
	<path style="fill:#939393;" d="M218.842,275.098c-3.079,0-5.576-2.496-5.576-5.576V216.21c0-3.08,2.497-5.576,5.576-5.576
		s5.576,2.496,5.576,5.576v53.312C224.418,272.602,221.921,275.098,218.842,275.098z"/>
	<path style="fill:#939393;" d="M255.997,275.098c-3.079,0-5.576-2.496-5.576-5.576v-47.951c0-3.08,2.497-5.576,5.576-5.576
		c3.079,0,5.576,2.496,5.576,5.576v47.951C261.574,272.602,259.076,275.098,255.997,275.098z"/>
	<path style="fill:#939393;" d="M293.167,275.098c-3.079,0-5.576-2.496-5.576-5.576v-53.326c0-3.08,2.497-5.576,5.576-5.576
		s5.576,2.496,5.576,5.576v53.326C298.743,272.602,296.246,275.098,293.167,275.098z"/>
	<path style="fill:#939393;" d="M330.324,275.098c-3.079,0-5.576-2.496-5.576-5.576v-70.787c0-3.08,2.497-5.576,5.576-5.576
		s5.576,2.496,5.576,5.576v70.787C335.9,272.602,333.403,275.098,330.324,275.098z"/>
	<path style="fill:#939393;" d="M144.516,275.098c-3.079,0-5.576-2.496-5.576-5.576V163.319c0-3.08,2.497-5.576,5.576-5.576
		s5.576,2.496,5.576,5.576v106.203C150.093,272.602,147.596,275.098,144.516,275.098z"/>
	<path style="fill:#939393;" d="M367.479,275.098c-3.079,0-5.576-2.496-5.576-5.576V163.319c0-3.08,2.497-5.576,5.576-5.576
		s5.576,2.496,5.576,5.576v106.203C373.055,272.602,370.558,275.098,367.479,275.098z"/>
	<path style="fill:#939393;" d="M470.934,275.098c-3.079,0-5.576-2.496-5.576-5.576V163.319c0-3.08,2.497-5.576,5.576-5.576
		s5.576,2.496,5.576,5.576v106.203C476.51,272.602,474.013,275.098,470.934,275.098z"/>
	<path style="fill:#939393;" d="M41.065,275.098c-3.079,0-5.576-2.496-5.576-5.576V163.319c0-3.08,2.497-5.576,5.576-5.576
		s5.576,2.496,5.576,5.576v106.203C46.642,272.602,44.145,275.098,41.065,275.098z"/>
</g>
<polyline style="fill:#E03232;" points="7.605,258.335 46.619,258.335 74.886,258.335 110.694,258.335 401.308,258.335 
	437.114,258.335 465.38,258.335 504.395,258.335 504.398,289.046 437.108,289.046 401.308,289.046 110.694,289.046 74.891,289.046 
	7.603,289.046 "/>
<path style="fill:#A01717;" d="M256,223.041c-81.771,0-148.759-64.509-152.731-145.314H82.319
	c-1.462,30.127-11.614,58.7-29.581,83.05c-11.255,15.272-25.066,28.18-41.047,38.366c-3.541,2.257-8.241,1.216-10.499-2.327
	c-2.257-3.541-1.215-8.242,2.327-10.499c14.396-9.174,26.838-20.805,36.98-34.566c17.532-23.761,26.798-51.985,26.798-81.627
	c0-4.199,3.404-7.604,7.604-7.604h35.787c2.017,0,3.95,0.801,5.378,2.227c1.425,1.425,2.226,3.36,2.226,5.377
	c0,75.934,61.777,137.71,137.71,137.71S393.71,146.058,393.71,70.124c0-2.017,0.801-3.951,2.226-5.377
	c1.427-1.427,3.36-2.227,5.378-2.227h35.787c4.2,0,7.604,3.405,7.604,7.604c0,29.642,9.266,57.868,26.796,81.623
	c10.145,13.767,22.586,25.396,36.982,34.57c3.541,2.257,4.584,6.957,2.327,10.499c-2.259,3.542-6.958,4.584-10.499,2.327
	c-15.982-10.183-29.791-23.093-41.049-38.37c-17.965-24.346-28.116-52.918-29.579-83.046h-20.951
	C404.758,158.532,337.771,223.041,256,223.041z"/>
<path style="fill:#C92727;" d="M110.686,62.52h-35.79c-4.197,0-7.604,3.407-7.604,7.604v282.078c0,4.197,3.407,7.604,7.604,7.604
	h35.79c4.197,0,7.604-3.407,7.604-7.604V70.124C118.29,65.927,114.883,62.52,110.686,62.52z"/>
<path style="fill:#E03232;" d="M110.686,62.52H87.063c-4.197,0-7.604,3.407-7.604,7.604v282.078c0,4.197,3.407,7.604,7.604,7.604
	h23.623c4.197,0,7.604-3.407,7.604-7.604V70.124C118.29,65.927,114.883,62.52,110.686,62.52z"/>
<path style="fill:#D8D8D6;" d="M126.228,429.204v-70.676c0-3.491-2.83-6.319-6.319-6.319H65.678c-3.491,0-6.319,2.83-6.319,6.319
	v70.676"/>
<path style="fill:#C4C4C2;" d="M81.719,429.204v-76.996h-16.04c-3.491,0-6.319,2.83-6.319,6.319v70.676"/>
<path style="fill:#C92727;" d="M437.101,62.52h-35.789c-4.197,0-7.604,3.407-7.604,7.604v282.078c0,4.197,3.407,7.604,7.604,7.604
	h35.789c4.197,0,7.604-3.407,7.604-7.604V70.124C444.705,65.927,441.299,62.52,437.101,62.52z"/>
<path style="fill:#E03232;" d="M437.101,62.52h-23.623c-4.197,0-7.604,3.407-7.604,7.604v282.078c0,4.197,3.407,7.604,7.604,7.604
	h23.623c4.197,0,7.604-3.407,7.604-7.604V70.124C444.705,65.927,441.299,62.52,437.101,62.52z"/>
<path style="fill:#D8D8D6;" d="M452.644,429.204v-70.676c0-3.491-2.83-6.319-6.319-6.319h-54.23c-3.491,0-6.319,2.83-6.319,6.319
	v70.676"/>
<path style="fill:#C4C4C2;" d="M408.134,429.204v-76.996h-16.039c-3.491,0-6.319,2.83-6.319,6.319v70.676"/>
<path style="fill:#415F70;" d="M504.395,449.481c-31.045,0-31.045-20.277-62.099-20.277c-28.682,0-30.872,17.297-55.499,19.933
	c-2.038,0.223-4.228,0.345-6.6,0.345c-31.055,0-31.055-20.277-62.099-20.277c-31.055,0-31.055,20.277-62.099,20.277
	s-31.045-20.277-62.099-20.277c-31.045,0-31.045,20.277-62.089,20.277c-2.372,0-4.562-0.122-6.6-0.345
	c-24.637-2.636-26.827-19.933-55.499-19.933c-31.045,0-31.045,20.277-62.099,20.277v-34.567c31.055,0,31.055-20.277,62.099-20.277
	c28.672,0,30.862,17.297,55.499,19.933c2.038,0.223,4.228,0.345,6.6,0.345c31.045,0,31.045-20.277,62.089-20.277
	c31.055,0,31.055,20.277,62.099,20.277s31.045-20.277,62.099-20.277c31.045,0,31.045,20.277,62.099,20.277
	c2.372,0,4.562-0.122,6.6-0.345c24.627-2.636,26.817-19.933,55.499-19.933c31.055,0,31.055,20.277,62.099,20.277V449.481z"/>
<g>
</g>
<g>
</g>
<g>
</g>
<g>
</g>
<g>
</g>
<g>
</g>
<g>
</g>
<g>
</g>
<g>
</g>
<g>
</g>
<g>
</g>
<g>
</g>
<g>
</g>
<g>
</g>
<g>
</g>
</svg>
