<svg enable-background="new 0 0 64 64" viewBox="0 0 64 64" xmlns="http://www.w3.org/2000/svg" xmlns:xlink="http://www.w3.org/1999/xlink"><linearGradient id="lg1"><stop offset="0" stop-color="#ffd600"/><stop offset=".1823" stop-color="#ff9c38"/><stop offset=".4394" stop-color="#ff5147"/><stop offset="1" stop-color="#9d5162"/></linearGradient><linearGradient id="SVGID_1_" gradientUnits="userSpaceOnUse" x1="32" x2="32" xlink:href="#lg1" y1="46" y2="-55.124"/><linearGradient id="lg2"><stop offset="0" stop-color="#ffd600"/><stop offset=".3442" stop-color="#ff9c38"/><stop offset=".6756" stop-color="#ff5147"/><stop offset="1" stop-color="#9d5162"/></linearGradient><linearGradient id="SVGID_2_" gradientUnits="userSpaceOnUse" x1="31.777" x2="31.777" xlink:href="#lg2" y1="37.87" y2="3.369"/><linearGradient id="SVGID_3_" gradientUnits="userSpaceOnUse" x1="31.264" x2="31.264" xlink:href="#lg2" y1="37.203" y2="-2.412"/><linearGradient id="SVGID_5_" gradientUnits="userSpaceOnUse" x1="31.698" x2="31.698" xlink:href="#lg1" y1="21.203" y2="-4.419"/><linearGradient id="SVGID_6_" gradientUnits="userSpaceOnUse" x1="15.776" x2="15.776" xlink:href="#lg1" y1="50.5" y2="27.171"/><linearGradient id="SVGID_7_" gradientUnits="userSpaceOnUse" x1="46.138" x2="46.138" y1="49" y2="28"><stop offset="0" stop-color="#ffd600"/><stop offset=".1823" stop-color="#ff9c38"/><stop offset=".9088" stop-color="#ff5147"/><stop offset="1" stop-color="#9d5162"/></linearGradient><linearGradient id="SVGID_8_" gradientUnits="userSpaceOnUse" x1="32" x2="32" y1="36" y2="43.752"><stop offset="0" stop-color="#ffd600"/><stop offset=".2493" stop-color="#ff9c38"/><stop offset=".5482" stop-color="#ff5147"/><stop offset="1" stop-color="#9d5162"/></linearGradient><linearGradient id="lg3"><stop offset="0" stop-color="#ffd600"/><stop offset=".2493" stop-color="#ff9c38"/><stop offset=".5848" stop-color="#ff5147"/><stop offset="1" stop-color="#9d5162"/></linearGradient><linearGradient id="SVGID_9_" gradientUnits="userSpaceOnUse" x1="32" x2="32" xlink:href="#lg3" y1="49.5" y2="23.794"/><linearGradient id="SVGID_10_" gradientUnits="userSpaceOnUse" x1="43.239" x2="43.239" xlink:href="#lg3" y1="49.875" y2="31.125"/><linearGradient id="SVGID_11_" gradientUnits="userSpaceOnUse" x1="20.761" x2="20.761" xlink:href="#lg3" y1="49.875" y2="31.125"/><linearGradient id="SVGID_12_" gradientUnits="userSpaceOnUse" x1="22.634" x2="22.634" xlink:href="#lg3" y1="49.875" y2="31.125"/><linearGradient id="SVGID_13_" gradientUnits="userSpaceOnUse" x1="24.507" x2="24.507" xlink:href="#lg3" y1="49.875" y2="31.125"/><linearGradient id="SVGID_14_" gradientUnits="userSpaceOnUse" x1="26.38" x2="26.38" xlink:href="#lg3" y1="49.875" y2="31.125"/><linearGradient id="SVGID_15_" gradientUnits="userSpaceOnUse" x1="28.254" x2="28.254" xlink:href="#lg3" y1="49.875" y2="31.125"/><linearGradient id="SVGID_16_" gradientUnits="userSpaceOnUse" x1="30.127" x2="30.127" xlink:href="#lg3" y1="49.875" y2="31.125"/><linearGradient id="SVGID_17_" gradientUnits="userSpaceOnUse" x1="32" x2="32" xlink:href="#lg3" y1="49.875" y2="31.125"/><linearGradient id="SVGID_18_" gradientUnits="userSpaceOnUse" x1="33.873" x2="33.873" xlink:href="#lg3" y1="49.875" y2="31.125"/><linearGradient id="SVGID_19_" gradientUnits="userSpaceOnUse" x1="35.746" x2="35.746" xlink:href="#lg3" y1="49.875" y2="31.125"/><linearGradient id="SVGID_20_" gradientUnits="userSpaceOnUse" x1="37.62" x2="37.62" xlink:href="#lg3" y1="49.875" y2="31.125"/><linearGradient id="SVGID_21_" gradientUnits="userSpaceOnUse" x1="39.493" x2="39.493" xlink:href="#lg3" y1="49.875" y2="31.125"/><linearGradient id="SVGID_22_" gradientUnits="userSpaceOnUse" x1="41.366" x2="41.366" xlink:href="#lg3" y1="49.875" y2="31.125"/><linearGradient id="SVGID_23_" gradientUnits="userSpaceOnUse" x1="11.407" x2="11.407" xlink:href="#lg3" y1="49.385" y2="23.79"/><linearGradient id="SVGID_24_" gradientUnits="userSpaceOnUse" x1="15.125" x2="15.125" xlink:href="#lg3" y1="49.875" y2="31.125"/><linearGradient id="SVGID_25_" gradientUnits="userSpaceOnUse" x1="5.759" x2="5.759" xlink:href="#lg3" y1="46.468" y2="32.773"/><linearGradient id="SVGID_26_" gradientUnits="userSpaceOnUse" x1="7.632" x2="7.632" xlink:href="#lg3" y1="49.875" y2="31.125"/><linearGradient id="SVGID_27_" gradientUnits="userSpaceOnUse" x1="9.506" x2="9.506" xlink:href="#lg3" y1="49.875" y2="31.125"/><linearGradient id="SVGID_28_" gradientUnits="userSpaceOnUse" x1="11.379" x2="11.379" xlink:href="#lg3" y1="49.875" y2="31.125"/><linearGradient id="SVGID_29_" gradientUnits="userSpaceOnUse" x1="13.252" x2="13.252" xlink:href="#lg3" y1="49.875" y2="31.125"/><linearGradient id="SVGID_30_" gradientUnits="userSpaceOnUse" x1="52.593" x2="52.593" xlink:href="#lg3" y1="49.385" y2="23.79"/><linearGradient id="SVGID_31_" gradientUnits="userSpaceOnUse" x1="48.875" x2="48.875" xlink:href="#lg3" y1="49.875" y2="31.125"/><linearGradient id="SVGID_32_" gradientUnits="userSpaceOnUse" x1="50.748" x2="50.748" xlink:href="#lg3" y1="49.875" y2="31.125"/><linearGradient id="SVGID_33_" gradientUnits="userSpaceOnUse" x1="52.621" x2="52.621" xlink:href="#lg3" y1="49.875" y2="31.125"/><linearGradient id="SVGID_34_" gradientUnits="userSpaceOnUse" x1="54.494" x2="54.494" xlink:href="#lg3" y1="49.875" y2="31.125"/><linearGradient id="SVGID_35_" gradientUnits="userSpaceOnUse" x1="56.368" x2="56.368" xlink:href="#lg3" y1="49.875" y2="31.125"/><linearGradient id="SVGID_36_" gradientUnits="userSpaceOnUse" x1="58.241" x2="58.241" xlink:href="#lg3" y1="46.468" y2="32.773"/><linearGradient id="SVGID_37_" gradientUnits="userSpaceOnUse" x1="32" x2="32" xlink:href="#lg3" y1="50.875" y2="40.61"/><linearGradient id="SVGID_38_" gradientUnits="userSpaceOnUse" x1="32" x2="32" xlink:href="#lg1" y1="65.25" y2="44.207"/><linearGradient id="lg4"><stop offset="0" stop-color="#ffd600"/><stop offset=".2493" stop-color="#ff9c38"/><stop offset=".4394" stop-color="#ff5147"/><stop offset="1" stop-color="#9d5162"/></linearGradient><linearGradient id="SVGID_39_" gradientUnits="userSpaceOnUse" x1="17.938" x2="17.938" xlink:href="#lg4" y1="58.677" y2="16.845"/><linearGradient id="SVGID_40_" gradientUnits="userSpaceOnUse" x1="46.063" x2="46.063" xlink:href="#lg4" y1="58.677" y2="16.845"/><linearGradient id="SVGID_41_" gradientUnits="userSpaceOnUse" x1="32" x2="32" xlink:href="#lg4" y1="70.417" y2="46.75"/><linearGradient id="SVGID_42_" gradientUnits="userSpaceOnUse" x1="25.787" x2="25.787" xlink:href="#lg2" y1="29.806" y2="23.114"/><linearGradient id="SVGID_43_" gradientUnits="userSpaceOnUse" x1="31.686" x2="31.686" xlink:href="#lg2" y1="27" y2="9.487"/><linearGradient id="SVGID_44_" gradientUnits="userSpaceOnUse" x1="39.338" x2="39.338" xlink:href="#lg2" y1="30.501" y2="19.602"/><linearGradient id="SVGID_45_" gradientUnits="userSpaceOnUse" x1="17.938" x2="17.938" xlink:href="#lg2" y1="26.024" y2="24.874"/><linearGradient id="SVGID_46_" gradientUnits="userSpaceOnUse" x1="17.938" x2="17.938" xlink:href="#lg2" y1="27.904" y2="26.755"/><linearGradient id="SVGID_47_" gradientUnits="userSpaceOnUse" x1="17.938" x2="17.938" xlink:href="#lg2" y1="29.785" y2="28.636"/><linearGradient id="SVGID_48_" gradientUnits="userSpaceOnUse" x1="17.938" x2="17.938" xlink:href="#lg2" y1="31.666" y2="30.517"/><linearGradient id="SVGID_49_" gradientUnits="userSpaceOnUse" x1="17.938" x2="17.938" xlink:href="#lg2" y1="33.547" y2="32.398"/><linearGradient id="SVGID_50_" gradientUnits="userSpaceOnUse" x1="17.938" x2="17.938" xlink:href="#lg2" y1="35.428" y2="34.279"/><linearGradient id="SVGID_51_" gradientUnits="userSpaceOnUse" x1="17.938" x2="17.938" xlink:href="#lg2" y1="37.309" y2="36.16"/><linearGradient id="SVGID_52_" gradientUnits="userSpaceOnUse" x1="17.938" x2="17.938" xlink:href="#lg2" y1="39.19" y2="38.041"/><linearGradient id="SVGID_53_" gradientUnits="userSpaceOnUse" x1="17.938" x2="17.938" xlink:href="#lg2" y1="41.071" y2="39.922"/><linearGradient id="SVGID_54_" gradientUnits="userSpaceOnUse" x1="17.938" x2="17.938" xlink:href="#lg2" y1="42.952" y2="41.802"/><linearGradient id="SVGID_55_" gradientUnits="userSpaceOnUse" x1="17.938" x2="17.938" xlink:href="#lg2" y1="44.832" y2="43.683"/><linearGradient id="SVGID_56_" gradientUnits="userSpaceOnUse" x1="46.063" x2="46.063" xlink:href="#lg2" y1="26.024" y2="24.874"/><linearGradient id="SVGID_57_" gradientUnits="userSpaceOnUse" x1="46.063" x2="46.063" xlink:href="#lg2" y1="27.904" y2="26.755"/><linearGradient id="SVGID_58_" gradientUnits="userSpaceOnUse" x1="46.063" x2="46.063" xlink:href="#lg2" y1="29.785" y2="28.636"/><linearGradient id="SVGID_59_" gradientUnits="userSpaceOnUse" x1="46.063" x2="46.063" xlink:href="#lg2" y1="31.666" y2="30.517"/><linearGradient id="SVGID_60_" gradientUnits="userSpaceOnUse" x1="46.063" x2="46.063" xlink:href="#lg2" y1="33.547" y2="32.398"/><linearGradient id="SVGID_61_" gradientUnits="userSpaceOnUse" x1="46.063" x2="46.063" xlink:href="#lg2" y1="35.428" y2="34.279"/><linearGradient id="SVGID_62_" gradientUnits="userSpaceOnUse" x1="46.063" x2="46.063" xlink:href="#lg2" y1="37.309" y2="36.16"/><linearGradient id="SVGID_63_" gradientUnits="userSpaceOnUse" x1="46.063" x2="46.063" xlink:href="#lg2" y1="39.19" y2="38.041"/><linearGradient id="SVGID_64_" gradientUnits="userSpaceOnUse" x1="46.063" x2="46.063" xlink:href="#lg2" y1="41.071" y2="39.922"/><linearGradient id="SVGID_65_" gradientUnits="userSpaceOnUse" x1="46.063" x2="46.063" xlink:href="#lg2" y1="42.952" y2="41.802"/><linearGradient id="SVGID_66_" gradientUnits="userSpaceOnUse" x1="46.063" x2="46.063" xlink:href="#lg2" y1="44.832" y2="43.683"/><linearGradient id="lg5"><stop offset="0" stop-color="#ffd600"/><stop offset=".297" stop-color="#ff9c38"/><stop offset="1" stop-color="#ff5147"/></linearGradient><linearGradient id="SVGID_67_" gradientUnits="userSpaceOnUse" x1="30.396" x2="32.6" xlink:href="#lg5" y1="24.877" y2="32.975"/><linearGradient id="SVGID_68_" gradientUnits="userSpaceOnUse" x1="38.844" x2="41.048" xlink:href="#lg5" y1="28.993" y2="37.09"/><linearGradient id="SVGID_69_" gradientUnits="userSpaceOnUse" x1="38.539" x2="42.099" xlink:href="#lg5" y1="20.006" y2="33.081"/><linearGradient id="SVGID_70_" gradientUnits="userSpaceOnUse" x1="23.04" x2="26.6" xlink:href="#lg5" y1="18.922" y2="31.997"/><linearGradient id="SVGID_71_" gradientUnits="userSpaceOnUse" x1="13.583" x2="14.685" xlink:href="#lg5" y1="18.343" y2="22.392"/><linearGradient id="SVGID_72_" gradientUnits="userSpaceOnUse" x1="16.903" x2="18.005" xlink:href="#lg5" y1="17.244" y2="21.293"/><linearGradient id="SVGID_73_" gradientUnits="userSpaceOnUse" x1="50.546" x2="51.649" xlink:href="#lg5" y1="23.822" y2="27.871"/><linearGradient id="SVGID_74_" gradientUnits="userSpaceOnUse" x1="52.919" x2="54.022" xlink:href="#lg5" y1="22.762" y2="26.81"/><linearGradient id="SVGID_75_" gradientUnits="userSpaceOnUse" x1="50.002" x2="51.104" xlink:href="#lg5" y1="18.222" y2="22.271"/><linearGradient id="SVGID_76_" gradientUnits="userSpaceOnUse" x1="23.741" x2="24.844" xlink:href="#lg5" y1="29.406" y2="33.454"/><g id="Layer_3"><g><circle cx="32" cy="32" fill="url(#SVGID_1_)" r="27.4"/></g><g><path d="m55.8 18.6-3.1 1.4c-1.6.8-3.5.9-5.1.1-1.3-.7-2.9-.7-4.2-.1l-4.3 2c-1.8.8-3.8.8-5.6 0-1.1-.5-2.4-.5-3.5 0l-1.6.7c-2 .9-4.4.9-6.4 0l-4.3-2c-1.1-.5-2.3-.5-3.4 0l-3.5 1.6c-.8.4-1.7.4-2.4 0l-1.6-.8c-1.1 2.6-1.8 5.4-2 8.4l3.6 1.7c.8.4 1.7.4 2.4 0l3.5-1.6c1.1-.5 2.3-.5 3.4 0l4.3 2c2 .9 4.4.9 6.4 0l1.6-.7c1.1-.5 2.4-.5 3.5 0l1.9.9c.6.3 1.2.3 1.7 0l6.3-2.9c1.3-.6 2.8-.7 4-.1 1.7.8 3.6.8 5.3.1l4-1.9c.7-.3 1.5-.6 2.2-.9-.6-2.7-1.7-5.4-3.1-7.9z" fill="url(#SVGID_2_)"/><path d="m55.8 18.7c-1.6-2.8-3.6-5.2-6-7.3-.8 0-1.6-.2-2.4-.6-1.3-.6-2.9-.5-4.2.1l-4.2 2c-1.8.8-3.8.8-5.6 0-1.1-.5-2.4-.5-3.5 0l-1.6.7c-2 .9-4.4.9-6.4 0l-4.3-2c-1.1-.5-2.3-.5-3.4 0l-.6.3c-3 2.7-5.4 6.1-7 9.9l1.7.8c.8.4 1.7.4 2.4 0l3.5-1.6c1.1-.5 2.3-.5 3.4 0l4.3 2c2 .9 4.4.9 6.4 0l1.6-.7c1.1-.5 2.4-.5 3.5 0 1.8.8 3.8.8 5.6 0l4.3-2c1.3-.6 2.8-.7 4-.1 1.7.8 3.6.8 5.3.1z" fill="url(#SVGID_3_)"/><path d="m55.8 18.7c-1.6-2.8-3.6-5.2-6-7.3-.8 0-1.6-.2-2.4-.6-1.3-.6-2.9-.5-4.2.1l-4.2 2c-1.8.8-3.8.8-5.6 0-1.1-.5-2.4-.5-3.5 0l-1.6.7c-2 .9-4.4.9-6.4 0l-4.3-2c-1.1-.5-2.3-.5-3.4 0l-.6.3c-3 2.7-5.4 6.1-7 9.9l1.7.8c.8.4 1.7.4 2.4 0l3.5-1.6c1.1-.5 2.3-.5 3.4 0l4.3 2c2 .9 4.4.9 6.4 0l1.6-.7c1.1-.5 2.4-.5 3.5 0 1.8.8 3.8.8 5.6 0l4.3-2c1.3-.6 2.8-.7 4-.1 1.7.8 3.6.8 5.3.1z" fill="url(#SVGID_3_)"/><path d="m32 4.8c-7.2 0-13.7 2.8-18.6 7.3l.8-.4c1.1-.5 2.3-.5 3.4 0l4.3 2c2 .9 4.4.9 6.4 0l1.6-.7c1.1-.5 2.4-.5 3.5 0 1.8.8 3.8.8 5.6 0l4.3-2c1.3-.6 2.8-.6 4.1 0 .8.4 1.6.6 2.5.6-4.8-4.3-11-6.8-17.9-6.8z" fill="url(#SVGID_5_)"/></g></g><g id="Layer_2"><path d="m13.8 45.5c-.5.2-1.1.2-1.6 0l-4.1-1.9c-.3-.1-.6-.1-.9 0 2.3 4.9 6 9 10.5 11.8 2.8-.9 5.2-2.8 6.7-5.4l-9.7-4.5c-.3-.1-.6-.1-.9 0z" fill="url(#SVGID_6_)"/><path d="m55.8 44.8h-.9v.9h-2.7v.8h-.5l-1-9.2c0-.2-.2-.4-.4-.4h-.7c-.2 0-.4.2-.4.4l-1 7.7h-.9v.7h-1.8v.5h-.8v-.5h-.6c-.5 0-1 .4-1 1v.8h-1.6v-1.3h-.2v-1.6l-1 .4v1.1h-.2v1.4l-4 .8h2.8 1.2.4 1.2 1.6 1.3.3.8.5 1.2.9.9 1.8.9.5 1.6c.8-1.1 1.6-2.3 2.2-3.5-.1 0-.2 0-.4 0z" fill="url(#SVGID_7_)"/><path d="m7.5 44.3h49c.5-1 1-2.1 1.3-3.1h-51.6c.4 1 .8 2.1 1.3 3.1z" fill="url(#SVGID_8_)"/><g><g><path d="m32 37.4c-7.7 0-14-6.3-14-14 0-.3.2-.5.5-.5s.5.2.5.5c0 7.2 5.8 13 13 13s13-5.8 13-13c0-.3.2-.5.5-.5s.5.2.5.5c0 7.7-6.3 14-14 14z" fill="url(#SVGID_9_)"/></g><g><path d="m43 32v9.9h.5v-10.5c-.2.2-.3.4-.5.6z" fill="url(#SVGID_10_)"/><path d="m20.5 31.4v10.6h.5v-10c-.2-.2-.3-.4-.5-.6z" fill="url(#SVGID_11_)"/><g><path d="m22.4 33.6v8.4h.5v-8c-.2-.1-.4-.3-.5-.4z" fill="url(#SVGID_12_)"/></g><g><path d="m24.3 35.1v6.9h.5v-6.6c-.2-.1-.4-.2-.5-.3z" fill="url(#SVGID_13_)"/></g><g><path d="m26.1 36.1v5.8h.5v-5.6c-.1 0-.3-.1-.5-.2z" fill="url(#SVGID_14_)"/></g><g><path d="m28 36.8v5.1h.5v-5c-.2 0-.3 0-.5-.1z" fill="url(#SVGID_15_)"/></g><g><path d="m29.9 37.2v4.7h.5v-4.6c-.2 0-.4 0-.5-.1z" fill="url(#SVGID_16_)"/></g><g><path d="m32 37.4c-.1 0-.2 0-.2 0v4.5h.5v-4.5c-.1 0-.2 0-.3 0z" fill="url(#SVGID_17_)"/></g><g><path d="m33.6 37.3v4.6h.5v-4.7c-.1.1-.3.1-.5.1z" fill="url(#SVGID_18_)"/></g><g><path d="m35.5 37v5h.5v-5.1c-.2 0-.3 0-.5.1z" fill="url(#SVGID_19_)"/></g><g><path d="m37.4 36.3v5.6h.5v-5.8c-.2.1-.4.2-.5.2z" fill="url(#SVGID_20_)"/></g><g><path d="m39.2 35.4v6.6h.5v-6.9c-.1.1-.3.2-.5.3z" fill="url(#SVGID_21_)"/></g><g><path d="m41.1 34v7.9h.5v-8.4c-.1.2-.3.4-.5.5z" fill="url(#SVGID_22_)"/></g></g></g><g><g><path d="m17.4 22.9c-.3 0-.5.2-.5.5 0 6.8-5.3 12.4-11.9 12.9.1.3.1.7.2 1 7.1-.6 12.7-6.6 12.7-13.9 0-.2-.3-.5-.5-.5z" fill="url(#SVGID_23_)"/><g><path d="m14.9 32v9.9h.5v-10.5c-.2.2-.4.4-.5.6z" fill="url(#SVGID_24_)"/><path d="m5.5 39c.1.6.3 1.1.5 1.7v-3.4c-.2 0-.3.1-.5.1z" fill="url(#SVGID_25_)"/><g><path d="m7.4 37v5h.5v-5.1c-.2 0-.4 0-.5.1z" fill="url(#SVGID_26_)"/></g><g><path d="m9.3 36.3v5.6h.5v-5.8c-.2.1-.4.2-.5.2z" fill="url(#SVGID_27_)"/></g><g><path d="m11.1 35.4v6.6h.5v-6.9c-.1.1-.3.2-.5.3z" fill="url(#SVGID_28_)"/></g><g><path d="m13 34v7.9h.5v-8.4c-.2.2-.3.4-.5.5z" fill="url(#SVGID_29_)"/></g></g></g><g><path d="m59 36.4c-6.7-.5-11.9-6.1-11.9-12.9 0-.3-.2-.5-.5-.5s-.5.2-.5.5c0 7.3 5.6 13.3 12.7 13.9.1-.4.2-.7.2-1z" fill="url(#SVGID_30_)"/><g><path d="m48.6 31.4v10.6h.5v-10c-.1-.2-.3-.4-.5-.6z" fill="url(#SVGID_31_)"/><g><path d="m50.5 33.6v8.4h.5v-8c-.2-.1-.3-.3-.5-.4z" fill="url(#SVGID_32_)"/></g><g><path d="m52.4 35.1v6.9h.5v-6.6c-.2-.1-.4-.2-.5-.3z" fill="url(#SVGID_33_)"/></g><g><path d="m54.2 36.1v5.8h.5v-5.6c-.1 0-.3-.1-.5-.2z" fill="url(#SVGID_34_)"/></g><g><path d="m56.1 36.8v5.1h.5v-5c-.1 0-.3 0-.5-.1z" fill="url(#SVGID_35_)"/></g><path d="m58.5 39v-1.7c-.2 0-.3-.1-.5-.1v3.4c.2-.5.3-1 .5-1.6z" fill="url(#SVGID_36_)"/></g></g></g><path d="m56.5 44.3c.3-.5.5-1 .7-1.6h-50.4c.2.5.5 1.1.7 1.6z" fill="url(#SVGID_37_)"/><path d="m10 48.3c5 6.7 13 11.1 22 11.1s17-4.4 22-11.1z" fill="url(#SVGID_38_)"/><g><path d="m19 48.3h-2.2v-25.3c0-.2.2-.4.4-.4h1.3c.2 0 .4.2.4.4v25.3z" fill="url(#SVGID_39_)"/><path d="m47.1 48.3h-2.1v-25.3c0-.2.2-.4.4-.4h1.3c.2 0 .4.2.4.4z" fill="url(#SVGID_40_)"/></g><g><path d="m47.1 48.3h-2.1v4h-26v-4h-2.2v4h-3.2c1.6 1.5 3.4 2.7 5.3 3.8v-.6h1.5v1.4c.2.1.3.2.5.2v-1.6h1.4v2.2c.2.1.3.1.5.2v-2.3h1.4v2.8c.2 0 .3.1.5.1v-2.9h1.4v3.2c.2 0 .3.1.5.1v-3.4h1.4v3.6c.2 0 .3.1.5.1v-3.7h1.4v3.8c.7.1 1.4.1 2.1.1s1.4 0 2.1-.1v-3.8h1.4v3.7c.2 0 .3-.1.5-.1v-3.6h1.4v3.4c.2 0 .3-.1.5-.1v-3.2h1.4v2.9c.2 0 .3-.1.5-.1v-2.8h1.4v2.3c.2-.1.3-.1.5-.2v-2.2h1.3v1.6c.2-.1.3-.2.5-.2v-1.4h1.5v.6c1.9-1 3.7-2.3 5.3-3.8h-3.2zm-16.7 7.2h1.4v3.7c-.5 0-.9 0-1.4.1zm3.2 3.8c-.5-.1-.9-.1-1.4-.1v-3.7h1.4z" fill="url(#SVGID_41_)"/></g><g><path d="m26.6 26.6c-.2 0-.3-.2-.4-.3s-.2-.2-.4-.2c-.1 0-.3.1-.4.2s-.2.2-.4.3-.3.1-.3.2c0 .2.5.3 1.1.3s1.1-.1 1.1-.3c0-.1-.1-.1-.3-.2z" fill="url(#SVGID_42_)"/></g><g><path d="m33.2 18c-.3-.1-.6-.3-.8-.6-.2-.2-.4-.3-.7-.3s-.6.1-.7.3c-.2.3-.5.5-.8.6-.4.1-.6.3-.6.4 0 .3 1 .6 2.2.6s2.2-.3 2.2-.6c-.1-.2-.4-.3-.8-.4z" fill="url(#SVGID_43_)"/></g><g><path d="m40.6 25.3c-.3-.1-.5-.2-.7-.5-.1-.2-.4-.3-.6-.3s-.5.1-.6.3c-.2.2-.4.4-.7.5s-.5.2-.5.4c0 .3.8.5 1.8.5s1.8-.2 1.8-.5c0-.2-.2-.3-.5-.4z" fill="url(#SVGID_44_)"/></g><path d="m18.2 24.6c0 .1-.1.2-.3.2-.1 0-.2-.1-.2-.2s.1-.2.2-.2c.2 0 .3.1.3.2z" fill="url(#SVGID_45_)"/><path d="m18.2 26.5c0 .1-.1.2-.3.2-.1 0-.2-.1-.2-.2s.1-.2.2-.2c.2 0 .3.1.3.2z" fill="url(#SVGID_46_)"/><path d="m18.2 28.4c0 .1-.1.2-.3.2-.1 0-.2-.1-.2-.2s.1-.2.2-.2c.2-.1.3 0 .3.2z" fill="url(#SVGID_47_)"/><path d="m18.2 30.3c0 .1-.1.2-.3.2-.1 0-.2-.1-.2-.2s.1-.2.2-.2c.2-.1.3 0 .3.2z" fill="url(#SVGID_48_)"/><path d="m18.2 32.1c0 .1-.1.2-.3.2-.1 0-.2-.1-.2-.2s.1-.2.2-.2c.2 0 .3.1.3.2z" fill="url(#SVGID_49_)"/><path d="m18.2 34c0 .1-.1.2-.3.2-.1 0-.2-.1-.2-.2s.1-.2.2-.2c.2 0 .3.1.3.2z" fill="url(#SVGID_50_)"/><path d="m18.2 35.9c0 .1-.1.2-.3.2-.1 0-.2-.1-.2-.2s.1-.2.2-.2c.2 0 .3.1.3.2z" fill="url(#SVGID_51_)"/><path d="m18.2 37.8c0 .1-.1.2-.3.2-.1 0-.2-.1-.2-.2s.1-.2.2-.2c.2-.1.3.1.3.2z" fill="url(#SVGID_52_)"/><path d="m18.2 39.7c0 .1-.1.2-.3.2-.1 0-.2-.1-.2-.2s.1-.2.2-.2c.2-.1.3 0 .3.2z" fill="url(#SVGID_53_)"/><path d="m18.2 41.6c0 .1-.1.2-.3.2-.1 0-.2-.1-.2-.2s.1-.2.2-.2c.2-.1.3 0 .3.2z" fill="url(#SVGID_54_)"/><path d="m18.2 43.4c0 .1-.1.2-.3.2-.1 0-.2-.1-.2-.2s.1-.2.2-.2c.2 0 .3.1.3.2z" fill="url(#SVGID_55_)"/><path d="m46.3 24.6c0 .1-.1.2-.3.2-.1 0-.2-.1-.2-.2s.1-.2.2-.2c.2 0 .3.1.3.2z" fill="url(#SVGID_56_)"/><path d="m46.3 26.5c0 .1-.1.2-.3.2-.1 0-.2-.1-.2-.2s.1-.2.2-.2c.2 0 .3.1.3.2z" fill="url(#SVGID_57_)"/><path d="m46.3 28.4c0 .1-.1.2-.3.2-.1 0-.2-.1-.2-.2s.1-.2.2-.2c.2-.1.3 0 .3.2z" fill="url(#SVGID_58_)"/><path d="m46.3 30.3c0 .1-.1.2-.3.2-.1 0-.2-.1-.2-.2s.1-.2.2-.2c.2-.1.3 0 .3.2z" fill="url(#SVGID_59_)"/><path d="m46.3 32.1c0 .1-.1.2-.3.2-.1 0-.2-.1-.2-.2s.1-.2.2-.2c.2 0 .3.1.3.2z" fill="url(#SVGID_60_)"/><path d="m46.3 34c0 .1-.1.2-.3.2-.1 0-.2-.1-.2-.2s.1-.2.2-.2c.2 0 .3.1.3.2z" fill="url(#SVGID_61_)"/><path d="m46.3 35.9c0 .1-.1.2-.3.2-.1 0-.2-.1-.2-.2s.1-.2.2-.2c.2 0 .3.1.3.2z" fill="url(#SVGID_62_)"/><path d="m46.3 37.8c0 .1-.1.2-.3.2-.1 0-.2-.1-.2-.2s.1-.2.2-.2c.2-.1.3.1.3.2z" fill="url(#SVGID_63_)"/><path d="m46.3 39.7c0 .1-.1.2-.3.2-.1 0-.2-.1-.2-.2s.1-.2.2-.2c.2-.1.3 0 .3.2z" fill="url(#SVGID_64_)"/><path d="m46.3 41.6c0 .1-.1.2-.3.2-.1 0-.2-.1-.2-.2s.1-.2.2-.2c.2-.1.3 0 .3.2z" fill="url(#SVGID_65_)"/><path d="m46.3 43.4c0 .1-.1.2-.3.2-.1 0-.2-.1-.2-.2s.1-.2.2-.2c.2 0 .3.1.3.2z" fill="url(#SVGID_66_)"/><path d="m30.7 24.7c-.2-.1-.4 0-.5.2.1-.2 0-.4-.2-.5.2.1.4 0 .5-.2-.1.2 0 .4.2.5z" fill="url(#SVGID_67_)"/><path d="m39.1 28.8c-.2-.1-.4 0-.5.2.1-.2 0-.4-.2-.5.2.1.4 0 .5-.2-.1.2 0 .4.2.5z" fill="url(#SVGID_68_)"/><path d="m39 19.7c-.3-.2-.7 0-.9.3.2-.3 0-.7-.3-.9.3.2.7 0 .9-.3-.2.4-.1.8.3.9z" fill="url(#SVGID_69_)"/><path d="m23.5 18.6c-.3-.2-.7 0-.9.3.2-.3 0-.7-.3-.9.3.2.7 0 .9-.3-.2.4-.1.8.3.9z" fill="url(#SVGID_70_)"/><path d="m13.7 18.2c-.1 0-.2 0-.3.1 0-.1 0-.2-.1-.3.1 0 .2 0 .3-.1 0 .2 0 .3.1.3z" fill="url(#SVGID_71_)"/><path d="m17 17.2c-.1 0-.2 0-.3.1 0-.1 0-.2-.1-.3.1 0 .2 0 .3-.1 0 .1 0 .2.1.3z" fill="url(#SVGID_72_)"/><path d="m50.7 23.7c-.1 0-.2 0-.3.1 0-.1 0-.2-.1-.3.1 0 .2 0 .3-.1-.1.2 0 .3.1.3z" fill="url(#SVGID_73_)"/><path d="m53.1 22.7c-.1 0-.2 0-.3.1 0-.1 0-.2-.1-.3.1 0 .2 0 .3-.1-.1.1 0 .2.1.3z" fill="url(#SVGID_74_)"/><path d="m50.1 18.1c-.1 0-.2 0-.3.1 0-.1 0-.2-.1-.3.1 0 .2 0 .3-.1 0 .2 0 .3.1.3z" fill="url(#SVGID_75_)"/><path d="m23.9 29.3c-.1 0-.2 0-.3.1 0-.1 0-.2-.1-.3.1 0 .2 0 .3-.1-.1.1 0 .3.1.3z" fill="url(#SVGID_76_)"/></g></svg>